<svg fill="none" height="182" viewBox="0 0 552 182" width="552" xmlns="http://www.w3.org/2000/svg" xmlns:xlink="http://www.w3.org/1999/xlink"><mask id="a" height="182" maskUnits="userSpaceOnUse" width="183" x="370" y="0"><path d="m461.242 181.516c50.124 0 90.758-40.633 90.758-90.7578 0-50.1244-40.634-90.7582-90.758-90.7582s-90.758 40.6338-90.758 90.7582c0 50.1248 40.634 90.7578 90.758 90.7578z" fill="#fff"/></mask><g fill="#1c1c1e"><path d="m92.9552 18.1567c31.9008.7458 48.0698 25.4911 50.0298 55.1897l-.02 90.0176h-48.7501l-.7558-.756v-82.1821c0-9.2411-9.0295-17.8625-17.9884-18.8551-12.8489-1.426-25.9648 9.3167-25.9648 22.3822v79.411h-49.5059v-140.6724h48.4982l-1.557 20.4221.8012 2.2574c2.5445-3.8647 4.5399-8.0419 7.5732-11.5942 7.8454-9.1907 21.1477-15.1264 33.0947-15.6252h4.5449z"/><path d="m157.618 36.0552 81.33-17.3939-.252 144.7037h-49.002l-.755-.756v-89.4987l-31.321 5.5477z"/><path d="m336.449 18.6613v144.7037h-50.01v-90.2547l-31.321 5.5477v-43.3586z"/></g><path d="m461.242 181.516c50.124 0 90.758-40.633 90.758-90.7578 0-50.1244-40.634-90.7582-90.758-90.7582s-90.758 40.6338-90.758 90.7582c0 50.1248 40.634 90.7578 90.758 90.7578z" fill="#f4e"/><g fill="#1c1c1e" mask="url(#a)"><path d="m381.296 111.289c27.75 0 50.246-22.4959 50.246-50.246 0-27.75-22.496-50.2459-50.246-50.2459s-50.246 22.4959-50.246 50.2459c0 27.7501 22.496 50.246 50.246 50.246z"/><path d="m491.981 41.5308c16.974 0 30.734-13.76 30.734-30.7338 0-16.97386-13.76-30.7339-30.734-30.7339s-30.734 13.76004-30.734 30.7339c0 16.9738 13.76 30.7338 30.734 30.7338z"/><path d="m492.49 202.302c33.664 0 60.954-27.289 60.954-60.953 0-33.663-27.29-60.9532-60.954-60.9532-33.663 0-60.953 27.2902-60.953 60.9532 0 33.664 27.29 60.953 60.953 60.953z"/></g></svg>